<svg xmlns="http://www.w3.org/2000/svg" xmlns:xlink="http://www.w3.org/1999/xlink" viewBox="0 0 358.52 259.64"><defs><style>.cls-1{fill:url(#linear-gradient);}.cls-2{fill:#9fdbf8;}.cls-3{fill:#c6e8fa;}.cls-4{fill:#e2f4fd;}.cls-5,.cls-6{fill:#fff;}.cls-5{fill-rule:evenodd;}</style><linearGradient id="linear-gradient" x1="167.42" y1="-9.03" x2="325.64" y2="208.38" gradientUnits="userSpaceOnUse"><stop offset="0" stop-color="#0f4c8d"/><stop offset="1" stop-color="#127dc2"/></linearGradient></defs><title>Asset 2</title><g id="Layer_2" data-name="Layer 2"><g id="Layer_1-2" data-name="Layer 1"><polygon class="cls-1" points="179 0 297.96 0 358.52 86.57 238.99 259.64 119.48 86.56 179 0"/><polygon class="cls-2" points="119.48 86.56 60 0 178.96 0 119.48 86.56"/><polygon class="cls-3" points="119.45 259.62 59.39 173.17 179.71 173.17 119.45 259.62"/><polygon class="cls-4" points="119.48 86.56 179.86 173.13 59.24 173.13 119.48 86.56"/><polygon class="cls-4" points="0 86.56 119.48 86.56 60 0 0 86.56"/><polygon class="cls-3" points="119.48 86.56 0 86.56 59.24 173.13 119.48 86.56"/><path class="cls-5" d="M302.11,60.08a37.67,37.67,0,0,0-.58,6.93c1,9.47,2.15,18.92,3.51,28.36.41,2.77,2.74,8.39,2.74,8.39H289.52c3.11-4,1.51-12.5,1.51-12.5S289,75.38,288.67,75.34c-3.21,9.25-7.2,18.94-10.49,28.42-5.74-1.59-10.16-3-12.17-8-2.26-5.52-4.62-11-7-16.48a8,8,0,0,0-1.83-2.78c-.27,9-4.37,17.93-1.53,27.22H244c4.31-8.9,5.83-27.74,5.83-27.74l.56-6.19s.74-6.7-2.29-9.75h13.56c2.53,0,4,1.39,5,3.74,3.05,6.59,10.09,22.1,10.09,22.1s4.7-12.67,5.8-16.38,1.18-6,3.25-7.53c1.74-1.13,2.85-1.91,4.25-1.93C292.26,60.05,302.11,60.08,302.11,60.08Z"/><path class="cls-5" d="M238.72,94.15c-.13-8.76-.15-17.53,0-26.28a49.79,49.79,0,0,1,1.41-7.77H222.93a46.76,46.76,0,0,1,1.61,7.77q.27,13.13,0,26.28a80,80,0,0,1-1.33,9.61h16.89A73.84,73.84,0,0,1,238.72,94.15Z"/><path class="cls-5" d="M205,81.55,219.53,60.1H208.19c-3.75-.07-5.86.86-7.52,3.56L192.73,75.8V60.1H177.32A73.37,73.37,0,0,1,178.58,69q.27,12.94,0,25.91a72.07,72.07,0,0,1-1.24,8.87h17.53c-2.79-2.9-2.08-17.62-2.08-17.62s6.34,9.07,9,13.45c1.68,2.72,3.61,4.24,7.36,4.17h11.41Z"/><path class="cls-6" d="M201.13,127.4a10.65,10.65,0,0,1-1.74,5.94,10.33,10.33,0,0,1-4.73,3.95,14.44,14.44,0,0,1-4.26,1c-.91.09-2.38.13-4.39.13l-8.1,0c.13-.88.25-1.54.36-2.32a17,17,0,0,0,.23-2.58c.13-3.14,0-12.57,0-12.57a12.08,12.08,0,0,0-.46-3.14c-.09-.45-.22-.94-.34-1.39l7.75,0a41.47,41.47,0,0,1,6.65.38,10.9,10.9,0,0,1,3.94,1.57A10,10,0,0,1,201.13,127.4Zm-7.35.11a9.07,9.07,0,0,0-1.63-5.67,5.26,5.26,0,0,0-4.39-2.12,16.55,16.55,0,0,0-2.49.28s-.14,11.5.06,14.51c.4.5,1.5.5,2.26.5a5.41,5.41,0,0,0,4.66-2.07A8.89,8.89,0,0,0,193.78,127.51Z"/><path class="cls-6" d="M218.27,134.4v4H202.39c.09-.57.34-2.06.46-2.87.1-.36.15-2.69.19-3.94.09-2.64,0-10.74,0-10.74a9.22,9.22,0,0,0-.33-2.6c-.17-.54-.29-1.29-.44-1.84H215.1a4.3,4.3,0,0,0,1.42-.17l0,3.81a14.34,14.34,0,0,0-2.16-.32c-.6,0-.89,0-1.91,0,0,0-2,0-2.6,0-.1.89-.1,5.38-.1,5.38l3.19-.06a12.9,12.9,0,0,0,2.29-.37l0,4a7.76,7.76,0,0,0-1.32-.23,11.38,11.38,0,0,0-1.68-.13h-2.5s0,5.15.1,6.44c1,.09,2.46,0,4.28,0A13,13,0,0,0,218.27,134.4Z"/><path class="cls-6" d="M221.42,116.36s4-.49,6.3.54c4.21,2.08,12.18,13.22,12.18,13.22v-9.26a13.12,13.12,0,0,0-.26-2.23c-.19-.84-.31-1.42-.53-2.26h5.34a28,28,0,0,0-.65,3.36c0,.72-.06,1.43-.06,2.52,0,0-.09,13.32.09,16.18-4.14-1.07-7.07-1.87-9.82-5l-7.77-8.95-.06,5.33c0,1.09.07,1.47,0,2.31a27.89,27.89,0,0,0,.72,6.32h-5.36a37.66,37.66,0,0,0,.63-6c.07-2.67,0-7.9,0-10.7A17.67,17.67,0,0,0,221.42,116.36Z"/><path class="cls-6" d="M246.57,120.9l.13-4.53h14.14c3.45,0,5.24,0,6.31,0l0,4.53a10.33,10.33,0,0,0-4.73-.85c-.76,0-1.28,0-2.56.12l0,9.61c0,1.1.06,3.06.05,4a44.11,44.11,0,0,0,.65,4.63l-8.08,0s.67-4.1.63-5.09l.07-13.16c-.57-.07-2.23-.13-3.59-.11A5.64,5.64,0,0,0,246.57,120.9Z"/><path class="cls-6" d="M308.17,134.09l0,4.31-16.14,0c.17-1,.24-1.46.36-2.26a25.21,25.21,0,0,0,.33-4.39l-.06-10.72a11.88,11.88,0,0,0-.49-3.41c-.1-.52-.19-.86-.29-1.31l8.37,0c-.13.48-.34,1.12-.53,1.75a24.59,24.59,0,0,0-.32,4.07s-.18,10,.08,12.92h4.11A7.33,7.33,0,0,0,308.17,134.09Z"/><path class="cls-6" d="M281.3,138.43h9.33a7,7,0,0,1-1.22-2c-.23-.49-.51-1.3-1-2.49L281,116.37h-8a2.12,2.12,0,0,1,.53,2,11.86,11.86,0,0,1-.72,2.32l-5.18,13.07c-.51,1.31-.64,1.59-.93,2.25a7,7,0,0,1-1.56,2.39h6.49a4.69,4.69,0,0,1-.46-2,6.71,6.71,0,0,1,.57-2.06l.76-1.89,1.29-3.45.14-.42,2.55-6.61,2.7,6.61h0l1.26,3.1h0l1,2.66,0,.13a6,6,0,0,1,.51,1.87A3.26,3.26,0,0,1,281.3,138.43Z"/></g></g></svg>